<svg width="11" height="19" viewBox="0 0 11 19" fill="none" xmlns="http://www.w3.org/2000/svg">
<path d="M10.5184 0.577109L10.5184 0.577105L10.5191 0.577903C10.5999 0.662729 10.7593 0.894403 10.7593 1.16718C10.7593 1.38833 10.6728 1.6007 10.5183 1.7589C10.5183 1.75891 10.5183 1.75892 10.5182 1.75893L2.97231 9.49999L10.5182 17.2395C10.6728 17.3977 10.7593 17.6101 10.7593 17.8312C10.7593 18.0524 10.6728 18.2648 10.5182 18.423C10.4427 18.5005 10.3524 18.5622 10.2527 18.6043C10.1529 18.6464 10.0457 18.6681 9.93734 18.6681C9.82902 18.6681 9.7218 18.6464 9.62201 18.6043C9.52223 18.5622 9.4319 18.5005 9.35635 18.4229C9.35634 18.4229 9.35632 18.4229 9.35631 18.4229L1.25947 10.1151C1.09907 9.95054 1.00929 9.72981 1.00929 9.49999C1.00929 9.27018 1.09907 9.04945 1.25948 8.88488L9.35631 0.577109C9.35632 0.577098 9.35633 0.577088 9.35634 0.577077C9.4319 0.499486 9.52223 0.437814 9.62201 0.395702C9.7218 0.353584 9.82902 0.331885 9.93734 0.331885C10.0457 0.331885 10.1529 0.353584 10.2527 0.395702C10.3525 0.43782 10.4428 0.499502 10.5184 0.577109Z" fill="black" stroke="black" stroke-width="0.2"/>
</svg>
