<svg width="11" height="19" viewBox="0 0 11 19" fill="none" xmlns="http://www.w3.org/2000/svg">
<path d="M1.25023 0.577109L1.25022 0.577105L1.24946 0.577903C1.16867 0.662729 1.00929 0.894403 1.00929 1.16718C1.00929 1.38833 1.09579 1.6007 1.25031 1.7589C1.25032 1.75891 1.25033 1.75892 1.25034 1.75893L8.79628 9.49999L1.25034 17.2395C1.0958 17.3977 1.00929 17.6101 1.00929 17.8312C1.00929 18.0524 1.0958 18.2648 1.25034 18.423C1.32588 18.5005 1.41618 18.5622 1.51592 18.6043C1.61572 18.6464 1.72293 18.6681 1.83125 18.6681C1.93956 18.6681 2.04678 18.6464 2.14658 18.6043C2.24635 18.5622 2.33668 18.5005 2.41224 18.4229C2.41225 18.4229 2.41226 18.4229 2.41227 18.4229L10.5091 10.1151C10.6695 9.95054 10.7593 9.72981 10.7593 9.49999C10.7593 9.27018 10.6695 9.04945 10.5091 8.88488L2.41227 0.577109C2.41226 0.577098 2.41225 0.577088 2.41224 0.577077C2.33669 0.499486 2.24635 0.437814 2.14658 0.395702C2.04678 0.353584 1.93956 0.331885 1.83125 0.331885C1.72293 0.331885 1.61571 0.353584 1.51592 0.395702C1.41613 0.43782 1.32579 0.499502 1.25023 0.577109Z" fill="black" stroke="black" stroke-width="0.2"/>
</svg>
