<svg width="24" height="24" viewBox="0 0 24 24" fill="none" xmlns="http://www.w3.org/2000/svg">
<path d="M6.36678 11.3354L6.36679 11.3354L14.1397 3.36148C14.1397 3.36145 14.1398 3.36143 14.1398 3.3614C14.222 3.27698 14.3203 3.20989 14.4288 3.16407C14.5374 3.11823 14.6541 3.09462 14.772 3.09462C14.8899 3.09462 15.0066 3.11823 15.1152 3.16407C15.2237 3.2099 15.3221 3.27702 15.4043 3.36146C15.571 3.53268 15.6643 3.76225 15.6643 4.00125C15.6643 4.24026 15.571 4.46982 15.4043 4.64104L15.4042 4.64112L8.23081 11.9985L15.4041 19.3573L6.36678 11.3354ZM6.36678 11.3354C6.19385 11.5128 6.09707 11.7508 6.09707 11.9985M6.36678 11.3354L6.09707 11.9985M6.09707 11.9985C6.09707 12.2462 6.19385 12.4842 6.36676 12.6616M6.09707 11.9985L6.36676 12.6616M6.36676 12.6616C6.36677 12.6616 6.36677 12.6616 6.36678 12.6616M6.36676 12.6616L6.36678 12.6616M6.36678 12.6616L14.1397 20.6385C14.2219 20.723 14.3202 20.7901 14.4288 20.8359C14.5374 20.8818 14.6541 20.9054 14.772 20.9054C14.8899 20.9054 15.0066 20.8818 15.1152 20.8359C15.2238 20.7901 15.3221 20.723 15.4043 20.6385M6.36678 12.6616L15.4043 20.6385M15.4043 20.6385C15.4042 20.6386 15.4041 20.6387 15.4041 20.6388L15.2611 20.4991L15.4043 20.6385Z" fill="#4B4B4B" stroke="#4B4B4B" stroke-width="0.4"/>
</svg>
