<svg width="23" height="23" viewBox="0 0 23 23" fill="none" xmlns="http://www.w3.org/2000/svg">
<path d="M11.3264 0.388885C14.2272 0.388885 17.0092 1.54123 19.0604 3.5924C21.1116 5.64358 22.2639 8.42558 22.2639 11.3264C22.2639 14.2272 21.1116 17.0092 19.0604 19.0604C17.0092 21.1115 14.2272 22.2639 11.3264 22.2639C8.42561 22.2639 5.64361 21.1115 3.59244 19.0604C1.54126 17.0092 0.388916 14.2272 0.388916 11.3264C0.388916 8.42558 1.54126 5.64358 3.59244 3.5924C5.64361 1.54123 8.42561 0.388885 11.3264 0.388885ZM9.96392 13.4842L7.53423 11.0529C7.44712 10.9658 7.34372 10.8967 7.22991 10.8496C7.11611 10.8025 6.99413 10.7782 6.87095 10.7782C6.74776 10.7782 6.62579 10.8025 6.51198 10.8496C6.39818 10.8967 6.29477 10.9658 6.20767 11.0529C6.03175 11.2289 5.93293 11.4675 5.93293 11.7162C5.93293 11.965 6.03175 12.2036 6.20767 12.3795L9.30142 15.4733C9.38827 15.5608 9.4916 15.6303 9.60544 15.6777C9.71928 15.7251 9.84138 15.7495 9.9647 15.7495C10.088 15.7495 10.2101 15.7251 10.324 15.6777C10.4378 15.6303 10.5411 15.5608 10.628 15.4733L17.0342 9.06545C17.1225 8.97871 17.1927 8.87535 17.2408 8.76133C17.289 8.64731 17.314 8.5249 17.3146 8.40114C17.3152 8.27739 17.2912 8.15475 17.2442 8.04029C17.1971 7.92583 17.1279 7.82182 17.0404 7.73426C16.953 7.6467 16.849 7.57733 16.7346 7.53013C16.6202 7.48294 16.4976 7.45886 16.3739 7.45929C16.2501 7.45972 16.1277 7.48465 16.0136 7.53264C15.8995 7.58062 15.7961 7.65072 15.7092 7.73888L9.96392 13.4842Z" fill="#5E0080"/>
</svg>
