<svg width="18" height="17" viewBox="0 0 18 17" fill="none" xmlns="http://www.w3.org/2000/svg">
<path d="M4.50005 8.37965H2.70005C2.46135 8.37965 2.23244 8.47397 2.06365 8.64185C1.89487 8.80973 1.80005 9.03743 1.80005 9.27485V15.85H5.40005V9.27485C5.40005 9.03743 5.30523 8.80973 5.13644 8.64185C4.96766 8.47397 4.73874 8.37965 4.50005 8.37965Z" fill="#A448EC"/>
<path d="M9.90005 5.11483H8.10005C7.86135 5.11483 7.63244 5.20914 7.46365 5.37702C7.29487 5.54491 7.20005 5.7726 7.20005 6.01002V15.85H10.8V6.01002C10.8 5.7726 10.7052 5.54491 10.5364 5.37702C10.3677 5.20914 10.1387 5.11483 9.90005 5.11483Z" fill="#A448EC"/>
<path d="M15.3 1.85H13.5C13.2614 1.85 13.0324 1.94432 12.8637 2.1122C12.6949 2.28008 12.6 2.50777 12.6 2.74519V15.85H16.2V2.74519C16.2 2.50777 16.1052 2.28008 15.9364 2.1122C15.7677 1.94432 15.5387 1.85 15.3 1.85Z" fill="#A448EC"/>
</svg>
