<svg width="18" height="17" viewBox="0 0 18 17" fill="none" xmlns="http://www.w3.org/2000/svg">
<path d="M4.49999 9.37966H2.69999C2.46129 9.37966 2.23237 9.47397 2.06359 9.64186C1.89481 9.80974 1.79999 10.0374 1.79999 10.2749V16.85H5.39999V10.2749C5.39999 10.0374 5.30517 9.80974 5.13638 9.64186C4.9676 9.47397 4.73868 9.37966 4.49999 9.37966Z" fill="#F6A200"/>
<path d="M9.89999 6.11483H8.09999C7.86129 6.11483 7.63237 6.20915 7.46359 6.37703C7.29481 6.54491 7.19999 6.77261 7.19999 7.01003V16.85H10.8V7.01003C10.8 6.77261 10.7052 6.54491 10.5364 6.37703C10.3676 6.20915 10.1387 6.11483 9.89999 6.11483Z" fill="#F6A200"/>
<path d="M15.3 2.85001H13.5C13.2613 2.85001 13.0324 2.94432 12.8636 3.1122C12.6948 3.28008 12.6 3.50778 12.6 3.7452V16.85H16.2V3.7452C16.2 3.50778 16.1052 3.28008 15.9364 3.1122C15.7676 2.94432 15.5387 2.85001 15.3 2.85001Z" fill="#DCDCDC"/>
</svg>
