<svg width="18" height="17" viewBox="0 0 18 17" fill="none" xmlns="http://www.w3.org/2000/svg">
<path d="M4.49999 9.37965H2.69999C2.46129 9.37965 2.23237 9.47397 2.06359 9.64185C1.89481 9.80973 1.79999 10.0374 1.79999 10.2748V16.85H5.39999V10.2748C5.39999 10.0374 5.30517 9.80973 5.13638 9.64185C4.9676 9.47397 4.73868 9.37965 4.49999 9.37965Z" fill="#0061F2"/>
<path d="M9.89999 6.11483H8.09999C7.86129 6.11483 7.63237 6.20914 7.46359 6.37702C7.29481 6.5449 7.19999 6.7726 7.19999 7.01002V16.85H10.8V7.01002C10.8 6.7726 10.7052 6.5449 10.5364 6.37702C10.3676 6.20914 10.1387 6.11483 9.89999 6.11483Z" fill="#DCDCDC"/>
<path d="M15.3 2.85H13.5C13.2613 2.85 13.0324 2.94431 12.8636 3.11219C12.6948 3.28008 12.6 3.50777 12.6 3.74519V16.85H16.2V3.74519C16.2 3.50777 16.1052 3.28008 15.9364 3.11219C15.7676 2.94431 15.5387 2.85 15.3 2.85Z" fill="#DCDCDC"/>
</svg>
