<svg width="15" height="15" viewBox="0 0 15 15" fill="none" xmlns="http://www.w3.org/2000/svg">
<path d="M2.01186 2.67564C1.96827 2.63205 1.9337 2.58031 1.91012 2.52337C1.88653 2.46643 1.87439 2.4054 1.87439 2.34376C1.87439 2.28213 1.88653 2.2211 1.91012 2.16415C1.9337 2.10721 1.96827 2.05547 2.01186 2.01189C2.05544 1.9683 2.10718 1.93373 2.16412 1.91015C2.22107 1.88656 2.2821 1.87442 2.34373 1.87442C2.40537 1.87442 2.4664 1.88656 2.52334 1.91015C2.58028 1.93373 2.63202 1.9683 2.67561 2.01189L7.49998 6.8372L12.3244 2.01189C12.3679 1.9683 12.4197 1.93373 12.4766 1.91015C12.5336 1.88656 12.5946 1.87442 12.6562 1.87442C12.7179 1.87442 12.7789 1.88656 12.8358 1.91015C12.8928 1.93373 12.9445 1.9683 12.9881 2.01189C13.0317 2.05547 13.0663 2.10721 13.0898 2.16415C13.1134 2.2211 13.1256 2.28213 13.1256 2.34376C13.1256 2.4054 13.1134 2.46643 13.0898 2.52337C13.0663 2.58031 13.0317 2.63205 12.9881 2.67564L8.16279 7.50001L12.9881 12.3244C13.0317 12.368 13.0663 12.4197 13.0898 12.4767C13.1134 12.5336 13.1256 12.5946 13.1256 12.6563C13.1256 12.7179 13.1134 12.7789 13.0898 12.8359C13.0663 12.8928 13.0317 12.9446 12.9881 12.9881C12.9445 13.0317 12.8928 13.0663 12.8358 13.0899C12.7789 13.1135 12.7179 13.1256 12.6562 13.1256C12.5946 13.1256 12.5336 13.1135 12.4766 13.0899C12.4197 13.0663 12.3679 13.0317 12.3244 12.9881L7.49998 8.16282L2.67561 12.9881C2.63202 13.0317 2.58028 13.0663 2.52334 13.0899C2.4664 13.1135 2.40537 13.1256 2.34373 13.1256C2.2821 13.1256 2.22107 13.1135 2.16412 13.0899C2.10718 13.0663 2.05544 13.0317 2.01186 12.9881C1.96827 12.9446 1.9337 12.8928 1.91012 12.8359C1.88653 12.7789 1.87439 12.7179 1.87439 12.6563C1.87439 12.5946 1.88653 12.5336 1.91012 12.4767C1.9337 12.4197 1.96827 12.368 2.01186 12.3244L6.83717 7.50001L2.01186 2.67564Z" fill="#B2B2B2"/>
</svg>
